<svg width="80" height="80" viewBox="0 0 80 80" fill="none" xmlns="http://www.w3.org/2000/svg">
<path d="M58.8889 9.06667C50.6 9.06667 42.2222 12 42.2222 17.5778V21.0667C54 21.6444 62.2222 26.8444 62.2222 33.8667V48.7556L62.3333 48.8889C69.2889 48.1778 75.4445 45.3333 75.4445 40.5556V17.5778C75.5556 12 67.1778 9.06667 58.8889 9.06667Z" fill="black"/>
<path d="M37.7778 21.0667V17.5778C37.7778 11.9778 29.4 9.04445 21.1111 9.04445C12.8222 9.04445 4.44444 12 4.44444 17.5778V40.5333C4.44444 45.3333 10.6 48.1556 17.5556 48.8889L17.7778 48.7333V33.8444C17.7778 26.8444 26 21.6444 37.7778 21.0667Z" fill="black"/>
<path d="M40 24.1111C29.0445 24.1111 20.7778 28.2889 20.7778 33.8444V61.2C20.7778 66.7556 29.0445 70.9333 40 70.9333C50.9556 70.9333 59.2222 66.7556 59.2222 61.2V56.4C53.6675 60.4786 46.8842 62.5331 40 62.2222C35.4573 62.3004 30.9385 61.5473 26.6667 60V56.1556C30.8759 57.9599 35.4213 58.8462 40 58.7556C49.3556 58.7556 57 56.0222 59.1778 51.5778V45.4889C55.1111 48.8889 48.2667 51.1111 40 51.1111C35.4573 51.1893 30.9385 50.4362 26.6667 48.8889V44.9556C30.8759 46.7599 35.4213 47.6462 40 47.5556C49.3556 47.5556 57 45.0889 59.1778 40.6444V33.8444C59.2222 28.2889 50.9556 24.1111 40 24.1111V24.1111Z" fill="black"/>
</svg>
